<mxfile host="app.diagrams.net" modified="2024-02-29T06:56:47.196Z" agent="Mozilla/5.0 (Windows NT 10.0; Win64; x64) AppleWebKit/537.36 (KHTML, like Gecko) Chrome/122.0.0.0 Safari/537.36 Edg/122.0.0.0" etag="HBN4HV_urhy5eENIzA3v" version="23.1.7" type="github">
  <diagram name="第 1 页" id="NWU4LuOlO00TV0fYENMZ">
    <mxGraphModel dx="1496" dy="715" grid="1" gridSize="10" guides="1" tooltips="1" connect="1" arrows="1" fold="1" page="1" pageScale="1" pageWidth="827" pageHeight="1169" math="0" shadow="0">
      <root>
        <mxCell id="0" />
        <mxCell id="1" parent="0" />
        <mxCell id="YuvGIDxuMpSHbDaGzQZ--1" style="edgeStyle=orthogonalEdgeStyle;rounded=0;orthogonalLoop=1;jettySize=auto;html=1;entryX=0.5;entryY=0;entryDx=0;entryDy=0;exitX=0.5;exitY=1;exitDx=0;exitDy=0;" edge="1" parent="1" source="YuvGIDxuMpSHbDaGzQZ--2" target="YuvGIDxuMpSHbDaGzQZ--4">
          <mxGeometry relative="1" as="geometry">
            <mxPoint x="380" y="120" as="sourcePoint" />
          </mxGeometry>
        </mxCell>
        <mxCell id="YuvGIDxuMpSHbDaGzQZ--2" value="开始" style="rounded=1;whiteSpace=wrap;html=1;fillColor=none;fontSize=26;fontFamily=宋体;" vertex="1" parent="1">
          <mxGeometry x="380" y="60" width="130" height="50" as="geometry" />
        </mxCell>
        <mxCell id="YuvGIDxuMpSHbDaGzQZ--3" style="edgeStyle=orthogonalEdgeStyle;rounded=0;orthogonalLoop=1;jettySize=auto;html=1;entryX=0.5;entryY=0;entryDx=0;entryDy=0;exitX=0.5;exitY=1;exitDx=0;exitDy=0;" edge="1" parent="1" source="YuvGIDxuMpSHbDaGzQZ--2" target="YuvGIDxuMpSHbDaGzQZ--6">
          <mxGeometry relative="1" as="geometry" />
        </mxCell>
        <mxCell id="YuvGIDxuMpSHbDaGzQZ--4" value="&lt;font face=&quot;宋体&quot;&gt;&lt;span style=&quot;font-size: 26px;&quot;&gt;登录&lt;/span&gt;&lt;/font&gt;" style="rounded=0;whiteSpace=wrap;html=1;fillColor=none;" vertex="1" parent="1">
          <mxGeometry x="120" y="180" width="280" height="40" as="geometry" />
        </mxCell>
        <mxCell id="YuvGIDxuMpSHbDaGzQZ--5" style="edgeStyle=orthogonalEdgeStyle;rounded=0;orthogonalLoop=1;jettySize=auto;html=1;entryX=0.5;entryY=0;entryDx=0;entryDy=0;exitX=0.5;exitY=1;exitDx=0;exitDy=0;" edge="1" parent="1" source="YuvGIDxuMpSHbDaGzQZ--4" target="YuvGIDxuMpSHbDaGzQZ--8">
          <mxGeometry relative="1" as="geometry" />
        </mxCell>
        <mxCell id="YuvGIDxuMpSHbDaGzQZ--21" style="edgeStyle=orthogonalEdgeStyle;rounded=0;orthogonalLoop=1;jettySize=auto;html=1;entryX=1;entryY=0.5;entryDx=0;entryDy=0;" edge="1" parent="1" source="YuvGIDxuMpSHbDaGzQZ--6" target="YuvGIDxuMpSHbDaGzQZ--8">
          <mxGeometry relative="1" as="geometry">
            <Array as="points">
              <mxPoint x="610" y="305" />
            </Array>
          </mxGeometry>
        </mxCell>
        <mxCell id="YuvGIDxuMpSHbDaGzQZ--6" value="&lt;font style=&quot;font-size: 26px;&quot; face=&quot;宋体&quot;&gt;注册&lt;/font&gt;" style="rounded=0;whiteSpace=wrap;html=1;fillColor=none;" vertex="1" parent="1">
          <mxGeometry x="480" y="180" width="280" height="40" as="geometry" />
        </mxCell>
        <mxCell id="YuvGIDxuMpSHbDaGzQZ--15" style="edgeStyle=orthogonalEdgeStyle;rounded=0;orthogonalLoop=1;jettySize=auto;html=1;entryX=0.5;entryY=0;entryDx=0;entryDy=0;" edge="1" parent="1" source="YuvGIDxuMpSHbDaGzQZ--8" target="YuvGIDxuMpSHbDaGzQZ--14">
          <mxGeometry relative="1" as="geometry" />
        </mxCell>
        <mxCell id="YuvGIDxuMpSHbDaGzQZ--8" value="&lt;font style=&quot;font-size: 26px;&quot; face=&quot;宋体&quot;&gt;输入登陆账号、密码&lt;/font&gt;" style="rounded=0;whiteSpace=wrap;html=1;fillColor=none;" vertex="1" parent="1">
          <mxGeometry x="120" y="280" width="280" height="50" as="geometry" />
        </mxCell>
        <mxCell id="YuvGIDxuMpSHbDaGzQZ--20" style="edgeStyle=orthogonalEdgeStyle;rounded=0;orthogonalLoop=1;jettySize=auto;html=1;entryX=1;entryY=0.5;entryDx=0;entryDy=0;" edge="1" parent="1" source="YuvGIDxuMpSHbDaGzQZ--10" target="YuvGIDxuMpSHbDaGzQZ--8">
          <mxGeometry relative="1" as="geometry">
            <Array as="points">
              <mxPoint x="610" y="305" />
            </Array>
          </mxGeometry>
        </mxCell>
        <mxCell id="YuvGIDxuMpSHbDaGzQZ--10" value="&lt;font style=&quot;font-size: 26px;&quot; face=&quot;宋体&quot;&gt;登陆信息有误&lt;/font&gt;" style="rounded=0;whiteSpace=wrap;html=1;fillColor=none;" vertex="1" parent="1">
          <mxGeometry x="500" y="380" width="220" height="40" as="geometry" />
        </mxCell>
        <mxCell id="YuvGIDxuMpSHbDaGzQZ--11" style="edgeStyle=orthogonalEdgeStyle;rounded=0;orthogonalLoop=1;jettySize=auto;html=1;entryX=0.5;entryY=0;entryDx=0;entryDy=0;" edge="1" parent="1" source="YuvGIDxuMpSHbDaGzQZ--12" target="YuvGIDxuMpSHbDaGzQZ--13">
          <mxGeometry relative="1" as="geometry" />
        </mxCell>
        <mxCell id="YuvGIDxuMpSHbDaGzQZ--12" value="&lt;font style=&quot;font-size: 26px;&quot; face=&quot;宋体&quot;&gt;进入用户系统&lt;/font&gt;" style="rounded=0;whiteSpace=wrap;html=1;fillColor=none;" vertex="1" parent="1">
          <mxGeometry x="120" y="490" width="280" height="40" as="geometry" />
        </mxCell>
        <mxCell id="YuvGIDxuMpSHbDaGzQZ--13" value="结束" style="rounded=1;whiteSpace=wrap;html=1;fillColor=none;fontSize=26;fontFamily=宋体;" vertex="1" parent="1">
          <mxGeometry x="195" y="570" width="130" height="50" as="geometry" />
        </mxCell>
        <mxCell id="YuvGIDxuMpSHbDaGzQZ--17" style="edgeStyle=orthogonalEdgeStyle;rounded=0;orthogonalLoop=1;jettySize=auto;html=1;entryX=0.5;entryY=0;entryDx=0;entryDy=0;" edge="1" parent="1" source="YuvGIDxuMpSHbDaGzQZ--14" target="YuvGIDxuMpSHbDaGzQZ--12">
          <mxGeometry relative="1" as="geometry" />
        </mxCell>
        <mxCell id="YuvGIDxuMpSHbDaGzQZ--18" value="&lt;font face=&quot;宋体&quot; style=&quot;font-size: 20px;&quot;&gt;正确&lt;/font&gt;" style="edgeLabel;html=1;align=center;verticalAlign=middle;resizable=0;points=[];" vertex="1" connectable="0" parent="YuvGIDxuMpSHbDaGzQZ--17">
          <mxGeometry x="-0.2" y="2" relative="1" as="geometry">
            <mxPoint x="18" as="offset" />
          </mxGeometry>
        </mxCell>
        <mxCell id="YuvGIDxuMpSHbDaGzQZ--19" style="edgeStyle=orthogonalEdgeStyle;rounded=0;orthogonalLoop=1;jettySize=auto;html=1;entryX=0;entryY=0.5;entryDx=0;entryDy=0;" edge="1" parent="1" source="YuvGIDxuMpSHbDaGzQZ--14" target="YuvGIDxuMpSHbDaGzQZ--10">
          <mxGeometry relative="1" as="geometry" />
        </mxCell>
        <mxCell id="YuvGIDxuMpSHbDaGzQZ--14" value="&lt;font face=&quot;宋体&quot; style=&quot;font-size: 26px;&quot;&gt;账号密码验证&lt;/font&gt;" style="rhombus;whiteSpace=wrap;html=1;fillColor=none;" vertex="1" parent="1">
          <mxGeometry x="127.5" y="360" width="265" height="80" as="geometry" />
        </mxCell>
        <mxCell id="YuvGIDxuMpSHbDaGzQZ--22" value="&lt;font style=&quot;font-size: 20px;&quot;&gt;否&lt;/font&gt;" style="text;html=1;align=center;verticalAlign=middle;resizable=0;points=[];autosize=1;strokeColor=none;fillColor=none;fontFamily=宋体;" vertex="1" parent="1">
          <mxGeometry x="420" y="370" width="40" height="40" as="geometry" />
        </mxCell>
      </root>
    </mxGraphModel>
  </diagram>
</mxfile>
